<svg width="32" height="33" viewBox="0 0 32 33" fill="none" xmlns="http://www.w3.org/2000/svg">
<rect width="32" height="32" transform="translate(0 0.5)" fill="url(#paint0_linear_1_22)"/>
<path d="M10.1138 5C9.87172 5 9.75037 5.00002 9.75037 5.00002C10.2974 5.27743 10.428 5.26161 10.8565 5.44414L17.5932 8.31383C17.758 8.38405 17.9396 8.44844 18.1246 8.51403C18.843 8.76875 19.6127 9.04168 19.6517 9.74467C19.6522 9.75534 19.6525 9.76592 19.6525 9.77641V24.7141H23.0121C23.5753 24.7141 24.032 24.251 24.032 23.6797V6.03438C24.032 5.46311 23.5753 5 23.0121 5H10.1138Z" fill="#48A7FF"/>
<path fill-rule="evenodd" clip-rule="evenodd" d="M9.76254 6.36161C9.07436 6.06847 8 5.89059 8 6.64762V24.9014C8 25.4862 8.64097 25.6913 9.25117 25.8865C9.43134 25.9442 9.60883 26.001 9.76634 26.0664L16.1625 28.7244C16.9524 29.0526 17.9005 29.2037 18.4022 28.5033C18.4982 28.3694 18.5586 28.2369 18.5586 28.1263V10.6939C18.5586 10.6834 18.5583 10.6728 18.5577 10.6621C18.5188 9.95915 17.749 9.68622 17.0307 9.4315C16.8457 9.36591 16.6641 9.30152 16.4992 9.23131L9.76254 6.36161ZM16.3153 20.8986C16.7685 20.8986 17.1359 20.2776 17.1359 19.5115C17.1359 18.7454 16.7685 18.1243 16.3153 18.1243C15.8621 18.1243 15.4947 18.7454 15.4947 19.5115C15.4947 20.2776 15.8621 20.8986 16.3153 20.8986Z" fill="#093762"/>
<defs>
<linearGradient id="paint0_linear_1_22" x1="16" y1="0" x2="16" y2="32" gradientUnits="userSpaceOnUse">
<stop stop-color="white"/>
<stop offset="1" stop-color="#E8E8E8"/>
</linearGradient>
</defs>
</svg>
