<svg width="226" height="31" viewBox="0 0 226 31" fill="none" xmlns="http://www.w3.org/2000/svg">
<path d="M3.03371 0.965637C2.73631 0.965637 2.58723 0.965662 2.58723 0.965662C3.25927 1.30166 3.41967 1.2825 3.94605 1.50358L12.2217 4.97935C12.4242 5.06439 12.6472 5.14238 12.8745 5.22183C13.757 5.53034 14.7026 5.86091 14.7504 6.71238C14.7511 6.72529 14.7515 6.73811 14.7515 6.75082V24.8433H18.8785C19.5704 24.8433 20.1313 24.2824 20.1313 23.5905V2.21848C20.1313 1.52655 19.5704 0.965637 18.8785 0.965637H3.03371Z" fill="black"/>
<path fill-rule="evenodd" clip-rule="evenodd" d="M2.60208 2.61482C1.7567 2.25976 0.436905 2.04431 0.436905 2.96124V25.0702C0.436905 25.7784 1.22429 26.0269 1.97389 26.2634C2.19522 26.3332 2.41325 26.402 2.60675 26.4813L10.4641 29.7006C11.4344 30.0982 12.5991 30.2811 13.2155 29.4328C13.3333 29.2706 13.4075 29.1102 13.4075 28.9761V7.86206C13.4075 7.84935 13.4071 7.83653 13.4064 7.82362C13.3586 6.97215 12.413 6.64158 11.5305 6.33307C11.3033 6.25362 11.0802 6.17563 10.8777 6.09059L2.60208 2.61482ZM10.6518 20.222C11.2085 20.222 11.6598 19.4698 11.6598 18.5419C11.6598 17.614 11.2085 16.8618 10.6518 16.8618C10.095 16.8618 9.6437 17.614 9.6437 18.5419C9.6437 19.4698 10.095 20.222 10.6518 20.222Z" fill="black"/>
<path d="M215.111 24.0485V6.53232H218.66V13.9517H218.563C218.563 11.4356 219.101 9.53233 220.176 8.242C221.251 6.95168 222.832 6.30652 224.918 6.30652H225.563V10.2097H224.337C222.832 10.2097 221.66 10.6183 220.821 11.4356C220.004 12.2313 219.595 13.3925 219.595 14.9194V24.0485H215.111Z" fill="black"/>
<path d="M204.237 24.6613C202.731 24.6613 201.409 24.4032 200.269 23.8871C199.151 23.371 198.215 22.6828 197.462 21.8226C196.731 20.9409 196.172 19.9624 195.785 18.8871C195.419 17.8118 195.237 16.7151 195.237 15.5968V14.9839C195.237 13.8226 195.419 12.7043 195.785 11.629C196.172 10.5323 196.731 9.56453 197.462 8.72582C198.215 7.86561 199.14 7.18819 200.237 6.69357C201.333 6.17744 202.602 5.91937 204.043 5.91937C205.936 5.91937 207.516 6.33873 208.785 7.17744C210.075 7.99464 211.043 9.08066 211.688 10.4355C212.333 11.7688 212.656 13.2097 212.656 14.7581V16.371H197.14V13.629H209.85L208.462 14.9839C208.462 13.8656 208.301 12.9086 207.979 12.1129C207.656 11.3172 207.161 10.7043 206.495 10.2742C205.85 9.8441 205.032 9.62905 204.043 9.62905C203.054 9.62905 202.215 9.85486 201.527 10.3065C200.839 10.7581 200.312 11.414 199.946 12.2742C199.602 13.1129 199.43 14.1237 199.43 15.3065C199.43 16.4032 199.602 17.3817 199.946 18.242C200.29 19.0807 200.817 19.7473 201.527 20.242C202.237 20.7151 203.14 20.9516 204.237 20.9516C205.333 20.9516 206.226 20.7366 206.914 20.3065C207.602 19.8549 208.043 19.3065 208.237 18.6613H212.366C212.108 19.8656 211.613 20.9194 210.882 21.8226C210.151 22.7258 209.215 23.4247 208.075 23.9194C206.957 24.414 205.678 24.6613 204.237 24.6613Z" fill="black"/>
<path d="M176.771 24.0484V6.53227H180.319V14.0484H179.997C179.997 12.2635 180.233 10.7796 180.706 9.59679C181.179 8.39249 181.878 7.48926 182.803 6.88711C183.749 6.28496 184.921 5.98389 186.319 5.98389H186.513C188.599 5.98389 190.179 6.66131 191.255 8.01614C192.33 9.34948 192.868 11.3495 192.868 14.0161V24.0484H188.384V13.629C188.384 12.5538 188.072 11.6828 187.448 11.0161C186.846 10.3495 186.007 10.0161 184.932 10.0161C183.835 10.0161 182.943 10.3602 182.255 11.0484C181.588 11.7151 181.255 12.6183 181.255 13.7581V24.0484H176.771Z" fill="black"/>
<path d="M157.144 24.0484V6.53227H160.692V14.0484H160.37C160.37 12.2635 160.606 10.7796 161.08 9.59679C161.553 8.39249 162.252 7.48926 163.176 6.88711C164.123 6.28496 165.295 5.98389 166.692 5.98389H166.886C168.972 5.98389 170.553 6.66131 171.628 8.01614C172.703 9.34948 173.241 11.3495 173.241 14.0161V24.0484H168.757V13.629C168.757 12.5538 168.445 11.6828 167.821 11.0161C167.219 10.3495 166.381 10.0161 165.305 10.0161C164.209 10.0161 163.316 10.3602 162.628 11.0484C161.961 11.7151 161.628 12.6183 161.628 13.7581V24.0484H157.144Z" fill="black"/>
<path d="M150.083 24.0484V18.8549H149.341V13.0807C149.341 12.0699 149.094 11.3172 148.599 10.8226C148.105 10.328 147.341 10.0807 146.309 10.0807C145.771 10.0807 145.126 10.0914 144.373 10.1129C143.621 10.1344 142.857 10.1667 142.083 10.2097C141.33 10.2312 140.653 10.2635 140.051 10.3065V6.50004C140.545 6.45703 141.105 6.41402 141.728 6.371C142.352 6.32799 142.986 6.30649 143.631 6.30649C144.298 6.28498 144.922 6.27423 145.502 6.27423C147.309 6.27423 148.803 6.51079 149.986 6.98391C151.191 7.45703 152.094 8.19896 152.696 9.20971C153.32 10.2205 153.631 11.543 153.631 13.1775V24.0484H150.083ZM144.438 24.5C143.169 24.5 142.051 24.2742 141.083 23.8226C140.137 23.371 139.395 22.7258 138.857 21.8871C138.341 21.0484 138.083 20.0377 138.083 18.8549C138.083 17.5646 138.395 16.5108 139.019 15.6936C139.664 14.8764 140.556 14.2635 141.696 13.8549C142.857 13.4463 144.212 13.242 145.76 13.242H149.825V15.9194H145.696C144.664 15.9194 143.868 16.1775 143.309 16.6936C142.771 17.1882 142.502 17.8334 142.502 18.6291C142.502 19.4248 142.771 20.0699 143.309 20.5646C143.868 21.0592 144.664 21.3065 145.696 21.3065C146.32 21.3065 146.889 21.199 147.406 20.9839C147.943 20.7473 148.384 20.3603 148.728 19.8226C149.094 19.2635 149.298 18.5108 149.341 17.5646L150.438 18.8226C150.33 20.0484 150.029 21.0807 149.535 21.9194C149.062 22.7581 148.395 23.4033 147.535 23.8549C146.696 24.285 145.664 24.5 144.438 24.5Z" fill="black"/>
<path d="M131.158 24.0484V0.5H135.642V24.0484H131.158ZM128.964 3.85484V0.5H135.642V3.85484H128.964Z" fill="black"/>
<path d="M109.667 30.5V6.53227H113.215V14.0807L112.667 14.0484C112.753 12.2635 113.118 10.7688 113.763 9.56453C114.43 8.36023 115.312 7.46776 116.409 6.88711C117.505 6.28496 118.731 5.98389 120.086 5.98389C121.333 5.98389 122.452 6.20969 123.441 6.66131C124.452 7.11292 125.312 7.74733 126.021 8.56453C126.753 9.38174 127.312 10.3387 127.699 11.4355C128.086 12.5108 128.28 13.6721 128.28 14.9194V15.5968C128.28 16.8656 128.086 18.0484 127.699 19.1452C127.333 20.2204 126.785 21.1774 126.054 22.0161C125.344 22.8333 124.484 23.4785 123.473 23.9516C122.462 24.4032 121.333 24.629 120.086 24.629C118.774 24.629 117.57 24.3602 116.473 23.8226C115.398 23.2635 114.527 22.414 113.86 21.2742C113.194 20.1129 112.817 18.6183 112.731 16.7903L114.151 18.9516V30.5H109.667ZM118.957 20.8549C119.925 20.8549 120.763 20.6183 121.473 20.1452C122.204 19.6721 122.774 19.0161 123.183 18.1774C123.591 17.3172 123.796 16.3495 123.796 15.2742C123.796 14.1559 123.591 13.1882 123.183 12.371C122.774 11.5538 122.204 10.9194 121.473 10.4678C120.763 9.99464 119.925 9.75808 118.957 9.75808C118.075 9.75808 117.258 9.95163 116.505 10.3387C115.774 10.7258 115.172 11.2957 114.699 12.0484C114.247 12.8011 114.021 13.7043 114.021 14.7581V16.0484C114.021 17.0592 114.258 17.9194 114.731 18.629C115.204 19.3387 115.817 19.8871 116.57 20.2742C117.323 20.6613 118.118 20.8549 118.957 20.8549Z" fill="black"/>
<path d="M101.354 24.0484V0.5H105.838V24.0484H101.354ZM99.1605 3.85484V0.5H105.838V3.85484H99.1605Z" fill="black"/>
<path d="M90.2535 24.6613C88.7481 24.6613 87.4255 24.4032 86.2857 23.8871C85.1675 23.371 84.232 22.6828 83.4793 21.8226C82.7481 20.9409 82.189 19.9624 81.8019 18.8871C81.4363 17.8118 81.2535 16.7151 81.2535 15.5968V14.9839C81.2535 13.8226 81.4363 12.7043 81.8019 11.629C82.189 10.5323 82.7481 9.56453 83.4793 8.72582C84.232 7.86561 85.1567 7.18819 86.2535 6.69357C87.3503 6.17744 88.6191 5.91937 90.0599 5.91937C91.9524 5.91937 93.5331 6.33873 94.8019 7.17744C96.0922 7.99464 97.0599 9.08066 97.7051 10.4355C98.3503 11.7688 98.6728 13.2097 98.6728 14.7581V16.371H83.1567V13.629H95.8664L94.4793 14.9839C94.4793 13.8656 94.318 12.9086 93.9954 12.1129C93.6728 11.3172 93.1782 10.7043 92.5116 10.2742C91.8664 9.8441 91.0492 9.62905 90.0599 9.62905C89.0707 9.62905 88.232 9.85486 87.5438 10.3065C86.8556 10.7581 86.3288 11.414 85.9632 12.2742C85.6191 13.1129 85.447 14.1237 85.447 15.3065C85.447 16.4032 85.6191 17.3817 85.9632 18.242C86.3073 19.0807 86.8341 19.7473 87.5438 20.242C88.2535 20.7151 89.1567 20.9516 90.2535 20.9516C91.3503 20.9516 92.2427 20.7366 92.9309 20.3065C93.6191 19.8549 94.0599 19.3065 94.2535 18.6613H98.3825C98.1245 19.8656 97.6298 20.9194 96.8986 21.8226C96.1675 22.7258 95.232 23.4247 94.0922 23.9194C92.9739 24.414 91.6943 24.6613 90.2535 24.6613Z" fill="black"/>
<path d="M77.5202 24.2742C75.9073 24.2742 74.574 24.0699 73.5202 23.6613C72.488 23.2312 71.7138 22.5215 71.1976 21.5323C70.6815 20.5215 70.4234 19.1667 70.4234 17.4678L70.4557 1.5968H74.6493L74.617 17.7581C74.617 18.6183 74.8428 19.285 75.2944 19.7581C75.7675 20.2097 76.4342 20.4355 77.2944 20.4355H80.0364V24.2742H77.5202ZM67.6493 9.82261V6.53228H80.0364V9.82261H67.6493Z" fill="black"/>
<path d="M57.7232 24.6613C56.1748 24.6613 54.8092 24.414 53.6264 23.9194C52.4436 23.4247 51.4436 22.7581 50.6264 21.9194C49.8092 21.0592 49.1855 20.0914 48.7554 19.0161C48.3468 17.9409 48.1425 16.8226 48.1425 15.6613V14.9839C48.1425 13.7796 48.3576 12.6398 48.7877 11.5645C49.2393 10.4678 49.8737 9.50002 50.6909 8.66131C51.5296 7.80109 52.5404 7.13443 53.7232 6.66131C54.906 6.16668 56.2393 5.91937 57.7232 5.91937C59.207 5.91937 60.5404 6.16668 61.7232 6.66131C62.906 7.13443 63.906 7.80109 64.7232 8.66131C65.5619 9.50002 66.1963 10.4678 66.6264 11.5645C67.0565 12.6398 67.2716 13.7796 67.2716 14.9839V15.6613C67.2716 16.8226 67.0565 17.9409 66.6264 19.0161C66.2178 20.0914 65.6049 21.0592 64.7877 21.9194C63.9705 22.7581 62.9705 23.4247 61.7877 23.9194C60.6049 24.414 59.2501 24.6613 57.7232 24.6613ZM57.7232 20.8226C58.82 20.8226 59.7447 20.586 60.4974 20.1129C61.2501 19.6183 61.82 18.9624 62.207 18.1452C62.5941 17.3065 62.7877 16.3602 62.7877 15.3065C62.7877 14.2312 62.5834 13.285 62.1748 12.4678C61.7877 11.629 61.207 10.9731 60.4329 10.5C59.6802 10.0054 58.7769 9.75808 57.7232 9.75808C56.6694 9.75808 55.7554 10.0054 54.9812 10.5C54.2286 10.9731 53.6479 11.629 53.2393 12.4678C52.8307 13.285 52.6264 14.2312 52.6264 15.3065C52.6264 16.3602 52.82 17.3065 53.207 18.1452C53.6157 18.9624 54.1963 19.6183 54.949 20.1129C55.7017 20.586 56.6264 20.8226 57.7232 20.8226Z" fill="black"/>
<path d="M29.6768 24.0484V0.5H34.1606V14.2419H33.3864C33.3864 12.4785 33.6122 10.9839 34.0639 9.75806C34.5155 8.53226 35.1821 7.59677 36.0639 6.95161C36.9671 6.30645 38.1069 5.98387 39.4832 5.98387H39.6768C41.6768 5.98387 43.1929 6.67204 44.2252 8.04839C45.2574 9.42473 45.7735 11.4247 45.7735 14.0484V24.0484H41.2897V13.629C41.2897 12.5108 40.9671 11.629 40.3219 10.9839C39.6983 10.3387 38.8703 10.0161 37.8381 10.0161C36.7413 10.0161 35.8488 10.3817 35.1606 11.1129C34.494 11.8226 34.1606 12.7581 34.1606 13.9194V24.0484H29.6768Z" fill="black"/>
</svg>
