<svg width="145" height="51" viewBox="0 0 145 51" fill="none" xmlns="http://www.w3.org/2000/svg">
<path d="M135.461 44.9599V29.9183H138.508V36.2895H138.425C138.425 34.1289 138.886 32.4945 139.81 31.3865C140.733 30.2784 142.09 29.7244 143.882 29.7244H144.436V33.0762H143.383C142.09 33.0762 141.084 33.4271 140.364 34.1289C139.662 34.8122 139.311 35.8094 139.311 37.1206V44.9599H135.461Z" fill="white"/>
<path d="M126.122 45.4862C124.829 45.4862 123.694 45.2646 122.715 44.8214C121.755 44.3782 120.951 43.7872 120.305 43.0486C119.677 42.2914 119.197 41.4511 118.865 40.5278C118.551 39.6044 118.394 38.6626 118.394 37.7023V37.176C118.394 36.1787 118.551 35.2184 118.865 34.2951C119.197 33.3533 119.677 32.5222 120.305 31.802C120.951 31.0633 121.745 30.4816 122.687 30.0568C123.629 29.6136 124.719 29.392 125.956 29.392C127.581 29.392 128.938 29.7521 130.028 30.4724C131.136 31.1741 131.967 32.1067 132.521 33.2702C133.075 34.4151 133.352 35.6524 133.352 36.9821V38.3671H120.028V36.0125H130.942L129.751 37.176C129.751 36.2157 129.612 35.3939 129.335 34.7106C129.058 34.0273 128.634 33.501 128.061 33.1316C127.507 32.7623 126.805 32.5776 125.956 32.5776C125.106 32.5776 124.386 32.7715 123.795 33.1593C123.204 33.5472 122.752 34.1104 122.438 34.8491C122.142 35.5693 121.995 36.4373 121.995 37.453C121.995 38.3948 122.142 39.2351 122.438 39.9738C122.733 40.694 123.186 41.2665 123.795 41.6912C124.405 42.0975 125.18 42.3006 126.122 42.3006C127.064 42.3006 127.83 42.116 128.421 41.7466C129.012 41.3588 129.391 40.8879 129.557 40.3339H133.103C132.881 41.368 132.456 42.2729 131.829 43.0486C131.201 43.8242 130.397 44.4244 129.419 44.8491C128.458 45.2739 127.359 45.4862 126.122 45.4862Z" fill="white"/>
<path d="M102.537 44.9598V29.9182H105.584V36.3725H105.307C105.307 34.8398 105.51 33.5655 105.916 32.5498C106.323 31.5157 106.923 30.74 107.717 30.223C108.529 29.7059 109.536 29.4473 110.736 29.4473H110.903C112.694 29.4473 114.051 30.029 114.975 31.1925C115.898 32.3374 116.36 34.0549 116.36 36.3448V44.9598H112.509V36.0124C112.509 35.0891 112.241 34.3411 111.706 33.7687C111.189 33.1962 110.469 32.9099 109.545 32.9099C108.603 32.9099 107.837 33.2054 107.246 33.7964C106.674 34.3688 106.387 35.1445 106.387 36.1232V44.9598H102.537Z" fill="white"/>
<path d="M85.6826 44.9598V29.9182H88.7297V36.3725H88.4526C88.4526 34.8398 88.6558 33.5655 89.0621 32.5498C89.4683 31.5157 90.0685 30.74 90.8626 30.223C91.6752 29.7059 92.6816 29.4473 93.882 29.4473H94.0482C95.8395 29.4473 97.1969 30.029 98.1202 31.1925C99.0436 32.3374 99.5053 34.0549 99.5053 36.3448V44.9598H95.6549V36.0124C95.6549 35.0891 95.3871 34.3411 94.8515 33.7687C94.3345 33.1962 93.6142 32.9099 92.6909 32.9099C91.749 32.9099 90.9826 33.2054 90.3917 33.7964C89.8192 34.3688 89.533 35.1445 89.533 36.1232V44.9598H85.6826Z" fill="white"/>
<path d="M79.6191 44.9598V40.5H78.982V35.5415C78.982 34.6736 78.7696 34.0272 78.3448 33.6025C77.9201 33.1777 77.2645 32.9654 76.3781 32.9654C75.9164 32.9654 75.3624 32.9746 74.716 32.9931C74.0697 33.0115 73.4141 33.0392 72.7493 33.0762C72.1029 33.0946 71.5212 33.1223 71.0041 33.1593V29.8906C71.4289 29.8536 71.909 29.8167 72.4446 29.7798C72.9801 29.7428 73.5249 29.7244 74.0789 29.7244C74.6514 29.7059 75.1869 29.6967 75.6856 29.6967C77.2368 29.6967 78.5203 29.8998 79.536 30.3061C80.5701 30.7124 81.3458 31.3495 81.8629 32.2174C82.3984 33.0854 82.6662 34.2211 82.6662 35.6246V44.9598H79.6191ZM74.7714 45.3476C73.6819 45.3476 72.7216 45.1537 71.8905 44.7659C71.078 44.3781 70.4409 43.8241 69.9792 43.1039C69.536 42.3836 69.3144 41.5157 69.3144 40.5C69.3144 39.392 69.5821 38.4871 70.1177 37.7853C70.6717 37.0836 71.4381 36.5572 72.4169 36.2064C73.4141 35.8555 74.5775 35.68 75.9072 35.68H79.3975V37.9792H75.8518C74.9653 37.9792 74.282 38.2008 73.8019 38.644C73.3402 39.0688 73.1094 39.6228 73.1094 40.3061C73.1094 40.9894 73.3402 41.5434 73.8019 41.9681C74.282 42.3929 74.9653 42.6053 75.8518 42.6053C76.3873 42.6053 76.8767 42.5129 77.3199 42.3282C77.7816 42.1251 78.1602 41.7927 78.4557 41.331C78.7696 40.8509 78.945 40.2045 78.982 39.392L79.9238 40.4723C79.8315 41.5249 79.5729 42.4114 79.1482 43.1316C78.7419 43.8518 78.1694 44.4058 77.4307 44.7936C76.7105 45.163 75.8241 45.3476 74.7714 45.3476Z" fill="white"/>
<path d="M63.3671 44.9599V24.7383H67.2175V44.9599H63.3671ZM61.4835 27.6192V24.7383H67.2175V27.6192H61.4835Z" fill="white"/>
<path d="M44.9124 50.5V29.9182H47.9595V36.4002L47.4886 36.3725C47.5624 34.8398 47.8764 33.5563 48.4304 32.5221C49.0029 31.488 49.76 30.7216 50.7019 30.223C51.6437 29.7059 52.6963 29.4473 53.8598 29.4473C54.9309 29.4473 55.8912 29.6412 56.7407 30.029C57.6086 30.4169 58.3473 30.9616 58.9567 31.6634C59.5846 32.3652 60.0648 33.1869 60.3972 34.1288C60.7296 35.0521 60.8958 36.0494 60.8958 37.1205V37.7022C60.8958 38.7918 60.7296 39.8074 60.3972 40.7493C60.0832 41.6726 59.6123 42.4944 58.9844 43.2147C58.375 43.9164 57.6363 44.4704 56.7684 44.8767C55.9004 45.2645 54.9309 45.4584 53.8598 45.4584C52.7333 45.4584 51.6991 45.2276 50.7573 44.7659C49.8339 44.2858 49.086 43.5563 48.5135 42.5775C47.941 41.5803 47.6178 40.2968 47.544 38.7271L48.7628 40.5831V50.5H44.9124ZM52.8902 42.2174C53.7213 42.2174 54.4415 42.0143 55.0509 41.608C55.6788 41.2017 56.1682 40.6385 56.519 39.9183C56.8699 39.1796 57.0454 38.3485 57.0454 37.4252C57.0454 36.4649 56.8699 35.6339 56.519 34.9321C56.1682 34.2303 55.6788 33.6856 55.0509 33.2977C54.4415 32.8915 53.7213 32.6883 52.8902 32.6883C52.1331 32.6883 51.4313 32.8545 50.785 33.1869C50.1571 33.5194 49.64 34.0087 49.2337 34.6551C48.8459 35.3014 48.652 36.0771 48.652 36.982V38.09C48.652 38.958 48.8551 39.6966 49.2614 40.3061C49.6677 40.9155 50.194 41.3864 50.8404 41.7188C51.4867 42.0512 52.17 42.2174 52.8902 42.2174Z" fill="white"/>
<path d="M106.464 20.7216V0.5H110.314V20.7216H106.464ZM104.58 3.38089V0.5H110.314V3.38089H104.58Z" fill="white"/>
<path d="M96.9315 21.2479C95.6387 21.2479 94.503 21.0263 93.5242 20.5831C92.5639 20.1399 91.7606 19.549 91.1143 18.8103C90.4864 18.0531 90.0062 17.2129 89.6738 16.2895C89.3599 15.3661 89.2029 14.4243 89.2029 13.464V12.9377C89.2029 11.9405 89.3599 10.9802 89.6738 10.0568C90.0062 9.11497 90.4864 8.28395 91.1143 7.56372C91.7606 6.82503 92.5547 6.24332 93.4965 5.81857C94.4384 5.37535 95.5279 5.15375 96.7652 5.15375C98.3904 5.15375 99.7477 5.51386 100.837 6.23408C101.945 6.93584 102.776 7.86843 103.33 9.03187C103.884 10.1768 104.161 11.4141 104.161 12.7438V14.1288H90.8373V11.7743H101.751L100.56 12.9377C100.56 11.9774 100.422 11.1556 100.145 10.4723C99.8677 9.78903 99.443 9.26271 98.8705 8.89337C98.3165 8.52402 97.6147 8.33935 96.7652 8.33935C95.9158 8.33935 95.1955 8.53325 94.6046 8.92107C94.0136 9.30888 93.5612 9.87213 93.2472 10.6108C92.9518 11.331 92.804 12.199 92.804 13.2147C92.804 14.1565 92.9518 14.9968 93.2472 15.7355C93.5427 16.4557 93.9952 17.0282 94.6046 17.4529C95.214 17.8592 95.9896 18.0624 96.9315 18.0624C97.8733 18.0624 98.6397 17.8777 99.2306 17.5083C99.8216 17.1205 100.2 16.6496 100.366 16.0956H103.912C103.69 17.1298 103.266 18.0347 102.638 18.8103C102.01 19.5859 101.207 20.1861 100.228 20.6108C99.2676 21.0356 98.1688 21.2479 96.9315 21.2479Z" fill="white"/>
<path d="M85.9968 20.9156C84.6117 20.9156 83.4667 20.7402 82.5619 20.3893C81.6754 20.0199 81.0106 19.4105 80.5674 18.561C80.1242 17.6931 79.9026 16.5296 79.9026 15.0707L79.9303 1.44189H83.5314L83.5037 15.32C83.5037 16.0587 83.6976 16.6312 84.0854 17.0375C84.4917 17.4253 85.0642 17.6192 85.8029 17.6192H88.1574V20.9156H85.9968ZM77.5203 8.50561V5.68013H88.1574V8.50561H77.5203Z" fill="white"/>
<path d="M68.9966 21.2479C67.667 21.2479 66.4943 21.0356 65.4786 20.6108C64.4629 20.1861 63.6042 19.6136 62.9024 18.8934C62.2007 18.1547 61.6651 17.3237 61.2958 16.4003C60.9449 15.4769 60.7694 14.5166 60.7694 13.5194V12.9377C60.7694 11.9035 60.9541 10.9248 61.3235 10.0014C61.7113 9.05957 62.2561 8.22854 62.9578 7.50832C63.678 6.76963 64.546 6.19715 65.5617 5.79087C66.5774 5.36612 67.7224 5.15375 68.9966 5.15375C70.2708 5.15375 71.4158 5.36612 72.4315 5.79087C73.4472 6.19715 74.3059 6.76963 75.0077 7.50832C75.7279 8.22854 76.2727 9.05957 76.642 10.0014C77.0114 10.9248 77.1961 11.9035 77.1961 12.9377V13.5194C77.1961 14.5166 77.0114 15.4769 76.642 16.4003C76.2912 17.3237 75.7648 18.1547 75.0631 18.8934C74.3613 19.6136 73.5026 20.1861 72.4869 20.6108C71.4712 21.0356 70.3078 21.2479 68.9966 21.2479ZM68.9966 17.9515C69.9384 17.9515 70.7325 17.7484 71.3789 17.3421C72.0252 16.9174 72.5146 16.3541 72.847 15.6524C73.1794 14.9322 73.3456 14.1196 73.3456 13.2147C73.3456 12.2913 73.1702 11.4788 72.8193 10.777C72.4869 10.0568 71.9883 9.49355 71.3235 9.08727C70.6771 8.66252 69.9015 8.45015 68.9966 8.45015C68.0917 8.45015 67.3068 8.66252 66.642 9.08727C65.9957 9.49355 65.4971 10.0568 65.1462 10.777C64.7953 11.4788 64.6199 12.2913 64.6199 13.2147C64.6199 14.1196 64.7861 14.9322 65.1185 15.6524C65.4694 16.3541 65.968 16.9174 66.6143 17.3421C67.2607 17.7484 68.0548 17.9515 68.9966 17.9515Z" fill="white"/>
<path d="M44.9124 20.7216V0.5H48.7628V12.3006H48.098C48.098 10.7863 48.2919 9.50278 48.6797 8.45015C49.0675 7.39752 49.64 6.59419 50.3972 6.04017C51.1728 5.48616 52.1515 5.20915 53.3334 5.20915H53.4997C55.2171 5.20915 56.519 5.8001 57.4055 6.982C58.2919 8.16391 58.7351 9.88136 58.7351 12.1344V20.7216H54.8847V11.7743C54.8847 10.814 54.6077 10.0568 54.0537 9.50278C53.5181 8.94876 52.8071 8.67175 51.9207 8.67175C50.9789 8.67175 50.2125 8.9857 49.6215 9.61358C49.049 10.223 48.7628 11.0263 48.7628 12.0236V20.7216H44.9124Z" fill="white"/>
<path d="M4.58556 0.5C4.12502 0.5 3.89417 0.500039 3.89417 0.500039C4.93484 1.02034 5.18322 0.990676 5.99834 1.33302L18.8134 6.71535C19.127 6.84704 19.4724 6.96781 19.8243 7.09084C21.1909 7.56858 22.6552 8.08047 22.7292 9.399C22.7303 9.419 22.7309 9.43886 22.7309 9.45853V37.4753H29.1217C30.1931 37.4753 31.0617 36.6068 31.0617 35.5353V2.44006C31.0617 1.3686 30.1931 0.5 29.1217 0.5H4.58556Z" fill="white"/>
<path fill-rule="evenodd" clip-rule="evenodd" d="M3.91718 3.05371C2.60807 2.50388 0.564331 2.17026 0.564331 3.59014V37.8266C0.564331 38.9233 1.78363 39.308 2.9444 39.6742C3.28714 39.7823 3.62477 39.8889 3.92441 40.0116L16.0917 44.9969C17.5943 45.6125 19.3979 45.8958 20.3523 44.5821C20.5348 44.331 20.6497 44.0826 20.6497 43.875V11.1792C20.6497 11.1595 20.6491 11.1397 20.648 11.1197C20.574 9.80116 19.1097 9.28927 17.7432 8.81152C17.3912 8.68849 17.0458 8.56773 16.7322 8.43604L3.91718 3.05371ZM16.3823 30.319C17.2445 30.319 17.9434 29.1542 17.9434 27.7173C17.9434 26.2804 17.2445 25.1156 16.3823 25.1156C15.5202 25.1156 14.8213 26.2804 14.8213 27.7173C14.8213 29.1542 15.5202 30.319 16.3823 30.319Z" fill="white"/>
</svg>
