<svg width="144" height="51" viewBox="0 0 144 51" fill="none" xmlns="http://www.w3.org/2000/svg">
<path d="M134.961 44.9599V29.9183H138.008V36.2895H137.925C137.925 34.1289 138.386 32.4945 139.31 31.3865C140.233 30.2784 141.59 29.7244 143.382 29.7244H143.936V33.0762H142.883C141.59 33.0762 140.584 33.4271 139.864 34.1289C139.162 34.8122 138.811 35.8094 138.811 37.1206V44.9599H134.961Z" fill="black"/>
<path d="M125.622 45.4862C124.329 45.4862 123.194 45.2646 122.215 44.8214C121.255 44.3782 120.451 43.7872 119.805 43.0486C119.177 42.2914 118.697 41.4511 118.365 40.5278C118.051 39.6044 117.894 38.6626 117.894 37.7023V37.176C117.894 36.1787 118.051 35.2184 118.365 34.2951C118.697 33.3533 119.177 32.5222 119.805 31.802C120.451 31.0633 121.245 30.4816 122.187 30.0568C123.129 29.6136 124.219 29.392 125.456 29.392C127.081 29.392 128.438 29.7521 129.528 30.4724C130.636 31.1741 131.467 32.1067 132.021 33.2702C132.575 34.4151 132.852 35.6524 132.852 36.9821V38.3671H119.528V36.0125H130.442L129.251 37.176C129.251 36.2157 129.112 35.3939 128.835 34.7106C128.558 34.0273 128.134 33.501 127.561 33.1316C127.007 32.7623 126.305 32.5776 125.456 32.5776C124.606 32.5776 123.886 32.7715 123.295 33.1593C122.704 33.5472 122.252 34.1104 121.938 34.8491C121.642 35.5693 121.495 36.4373 121.495 37.453C121.495 38.3948 121.642 39.2351 121.938 39.9738C122.233 40.694 122.686 41.2665 123.295 41.6912C123.905 42.0975 124.68 42.3006 125.622 42.3006C126.564 42.3006 127.33 42.116 127.921 41.7466C128.512 41.3588 128.891 40.8879 129.057 40.3339H132.603C132.381 41.368 131.956 42.2729 131.329 43.0486C130.701 43.8242 129.897 44.4244 128.919 44.8491C127.958 45.2739 126.859 45.4862 125.622 45.4862Z" fill="black"/>
<path d="M102.037 44.9598V29.9182H105.084V36.3725H104.807C104.807 34.8398 105.01 33.5655 105.416 32.5498C105.823 31.5157 106.423 30.74 107.217 30.223C108.029 29.7059 109.036 29.4473 110.236 29.4473H110.402C112.194 29.4473 113.551 30.029 114.475 31.1925C115.398 32.3374 115.86 34.0549 115.86 36.3448V44.9598H112.009V36.0124C112.009 35.0891 111.741 34.3411 111.206 33.7687C110.689 33.1962 109.969 32.9099 109.045 32.9099C108.103 32.9099 107.337 33.2054 106.746 33.7964C106.173 34.3688 105.887 35.1445 105.887 36.1232V44.9598H102.037Z" fill="black"/>
<path d="M85.1825 44.9598V29.9182H88.2296V36.3725H87.9526C87.9526 34.8398 88.1558 33.5655 88.562 32.5498C88.9683 31.5157 89.5685 30.74 90.3626 30.223C91.1752 29.7059 92.1816 29.4473 93.382 29.4473H93.5482C95.3395 29.4473 96.6969 30.029 97.6202 31.1925C98.5436 32.3374 99.0053 34.0549 99.0053 36.3448V44.9598H95.1548V36.0124C95.1548 35.0891 94.8871 34.3411 94.3515 33.7687C93.8344 33.1962 93.1142 32.9099 92.1908 32.9099C91.249 32.9099 90.4826 33.2054 89.8917 33.7964C89.3192 34.3688 89.033 35.1445 89.033 36.1232V44.9598H85.1825Z" fill="black"/>
<path d="M79.1191 44.9598V40.5H78.4819V35.5415C78.4819 34.6736 78.2696 34.0272 77.8448 33.6025C77.4201 33.1777 76.7645 32.9654 75.8781 32.9654C75.4164 32.9654 74.8624 32.9746 74.216 32.9931C73.5696 33.0115 72.9141 33.0392 72.2492 33.0762C71.6029 33.0946 71.0212 33.1223 70.5041 33.1593V29.8906C70.9288 29.8536 71.409 29.8167 71.9445 29.7798C72.4801 29.7428 73.0249 29.7244 73.5789 29.7244C74.1514 29.7059 74.6869 29.6967 75.1855 29.6967C76.7368 29.6967 78.0203 29.8998 79.0359 30.3061C80.0701 30.7124 80.8457 31.3495 81.3628 32.2174C81.8984 33.0854 82.1661 34.2211 82.1661 35.6246V44.9598H79.1191ZM74.2714 45.3476C73.1818 45.3476 72.2215 45.1537 71.3905 44.7659C70.578 44.3781 69.9408 43.8241 69.4792 43.1039C69.0359 42.3836 68.8143 41.5157 68.8143 40.5C68.8143 39.392 69.0821 38.4871 69.6177 37.7853C70.1717 37.0836 70.9381 36.5572 71.9168 36.2064C72.9141 35.8555 74.0775 35.68 75.4071 35.68H78.8974V37.9792H75.3517C74.4653 37.9792 73.782 38.2008 73.3019 38.644C72.8402 39.0688 72.6093 39.6228 72.6093 40.3061C72.6093 40.9894 72.8402 41.5434 73.3019 41.9681C73.782 42.3929 74.4653 42.6053 75.3517 42.6053C75.8873 42.6053 76.3767 42.5129 76.8199 42.3282C77.2816 42.1251 77.6601 41.7927 77.9556 41.331C78.2696 40.8509 78.445 40.2045 78.4819 39.392L79.4238 40.4723C79.3314 41.5249 79.0729 42.4114 78.6481 43.1316C78.2419 43.8518 77.6694 44.4058 76.9307 44.7936C76.2105 45.163 75.324 45.3476 74.2714 45.3476Z" fill="black"/>
<path d="M62.8671 44.9599V24.7383H66.7175V44.9599H62.8671ZM60.9834 27.6192V24.7383H66.7175V27.6192H60.9834Z" fill="black"/>
<path d="M44.4123 50.5V29.9182H47.4594V36.4002L46.9885 36.3725C47.0624 34.8398 47.3763 33.5563 47.9304 32.5221C48.5028 31.488 49.26 30.7216 50.2018 30.223C51.1437 29.7059 52.1963 29.4473 53.3597 29.4473C54.4308 29.4473 55.3911 29.6412 56.2406 30.029C57.1086 30.4169 57.8473 30.9616 58.4567 31.6634C59.0846 32.3652 59.5647 33.1869 59.8971 34.1288C60.2295 35.0521 60.3957 36.0494 60.3957 37.1205V37.7022C60.3957 38.7918 60.2295 39.8074 59.8971 40.7493C59.5832 41.6726 59.1123 42.4944 58.4844 43.2147C57.875 43.9164 57.1363 44.4704 56.2683 44.8767C55.4004 45.2645 54.4308 45.4584 53.3597 45.4584C52.2332 45.4584 51.1991 45.2276 50.2572 44.7659C49.3339 44.2858 48.5859 43.5563 48.0135 42.5775C47.441 41.5803 47.1178 40.2968 47.0439 38.7271L48.2628 40.5831V50.5H44.4123ZM52.3902 42.2174C53.2212 42.2174 53.9414 42.0143 54.5509 41.608C55.1788 41.2017 55.6681 40.6385 56.019 39.9183C56.3699 39.1796 56.5453 38.3485 56.5453 37.4252C56.5453 36.4649 56.3699 35.6339 56.019 34.9321C55.6681 34.2303 55.1788 33.6856 54.5509 33.2977C53.9414 32.8915 53.2212 32.6883 52.3902 32.6883C51.633 32.6883 50.9313 32.8545 50.2849 33.1869C49.657 33.5194 49.14 34.0087 48.7337 34.6551C48.3459 35.3014 48.152 36.0771 48.152 36.982V38.09C48.152 38.958 48.3551 39.6966 48.7614 40.3061C49.1677 40.9155 49.694 41.3864 50.3403 41.7188C50.9867 42.0512 51.67 42.2174 52.3902 42.2174Z" fill="black"/>
<path d="M105.964 20.7216V0.5H109.814V20.7216H105.964ZM104.08 3.38089V0.5H109.814V3.38089H104.08Z" fill="black"/>
<path d="M96.4314 21.2479C95.1387 21.2479 94.003 21.0263 93.0242 20.5831C92.0639 20.1399 91.2606 19.549 90.6142 18.8103C89.9864 18.0531 89.5062 17.2129 89.1738 16.2895C88.8599 15.3661 88.7029 14.4243 88.7029 13.464V12.9377C88.7029 11.9405 88.8599 10.9802 89.1738 10.0568C89.5062 9.11497 89.9864 8.28395 90.6142 7.56372C91.2606 6.82503 92.0547 6.24332 92.9965 5.81857C93.9383 5.37535 95.0279 5.15375 96.2652 5.15375C97.8903 5.15375 99.2477 5.51386 100.337 6.23408C101.445 6.93584 102.276 7.86843 102.83 9.03187C103.384 10.1768 103.661 11.4141 103.661 12.7438V14.1288H90.3372V11.7743H101.251L100.06 12.9377C100.06 11.9774 99.9217 11.1556 99.6447 10.4723C99.3677 9.78903 98.943 9.26271 98.3705 8.89337C97.8165 8.52402 97.1147 8.33935 96.2652 8.33935C95.4157 8.33935 94.6955 8.53325 94.1046 8.92107C93.5136 9.30888 93.0612 9.87213 92.7472 10.6108C92.4517 11.331 92.304 12.199 92.304 13.2147C92.304 14.1565 92.4517 14.9968 92.7472 15.7355C93.0427 16.4557 93.4951 17.0282 94.1046 17.4529C94.714 17.8592 95.4896 18.0624 96.4314 18.0624C97.3733 18.0624 98.1396 17.8777 98.7306 17.5083C99.3216 17.1205 99.7001 16.6496 99.8663 16.0956H103.412C103.19 17.1298 102.766 18.0347 102.138 18.8103C101.51 19.5859 100.707 20.1861 99.7278 20.6108C98.7675 21.0356 97.6687 21.2479 96.4314 21.2479Z" fill="black"/>
<path d="M85.4967 20.9156C84.1117 20.9156 82.9667 20.7402 82.0618 20.3893C81.1754 20.0199 80.5106 19.4105 80.0674 18.561C79.6242 17.6931 79.4026 16.5296 79.4026 15.0707L79.4302 1.44189H83.0314L83.0037 15.32C83.0037 16.0587 83.1976 16.6312 83.5854 17.0375C83.9917 17.4253 84.5641 17.6192 85.3028 17.6192H87.6574V20.9156H85.4967ZM77.0203 8.50561V5.68013H87.6574V8.50561H77.0203Z" fill="black"/>
<path d="M68.4966 21.2479C67.1669 21.2479 65.9943 21.0356 64.9786 20.6108C63.9629 20.1861 63.1041 19.6136 62.4024 18.8934C61.7006 18.1547 61.1651 17.3237 60.7957 16.4003C60.4448 15.4769 60.2694 14.5166 60.2694 13.5194V12.9377C60.2694 11.9035 60.4541 10.9248 60.8234 10.0014C61.2112 9.05957 61.756 8.22854 62.4578 7.50832C63.178 6.76963 64.046 6.19715 65.0617 5.79087C66.0774 5.36612 67.2223 5.15375 68.4966 5.15375C69.7708 5.15375 70.9158 5.36612 71.9315 5.79087C72.9472 6.19715 73.8059 6.76963 74.5077 7.50832C75.2279 8.22854 75.7727 9.05957 76.142 10.0014C76.5113 10.9248 76.696 11.9035 76.696 12.9377V13.5194C76.696 14.5166 76.5113 15.4769 76.142 16.4003C75.7911 17.3237 75.2648 18.1547 74.5631 18.8934C73.8613 19.6136 73.0026 20.1861 71.9869 20.6108C70.9712 21.0356 69.8077 21.2479 68.4966 21.2479ZM68.4966 17.9515C69.4384 17.9515 70.2325 17.7484 70.8788 17.3421C71.5252 16.9174 72.0146 16.3541 72.347 15.6524C72.6794 14.9322 72.8456 14.1196 72.8456 13.2147C72.8456 12.2913 72.6702 11.4788 72.3193 10.777C71.9869 10.0568 71.4883 9.49355 70.8234 9.08727C70.1771 8.66252 69.4015 8.45015 68.4966 8.45015C67.5917 8.45015 66.8068 8.66252 66.142 9.08727C65.4956 9.49355 64.997 10.0568 64.6461 10.777C64.2953 11.4788 64.1198 12.2913 64.1198 13.2147C64.1198 14.1196 64.286 14.9322 64.6184 15.6524C64.9693 16.3541 65.4679 16.9174 66.1143 17.3421C66.7606 17.7484 67.5547 17.9515 68.4966 17.9515Z" fill="black"/>
<path d="M44.4124 20.7216V0.5H48.2628V12.3006H47.598C47.598 10.7863 47.7919 9.50278 48.1797 8.45015C48.5675 7.39752 49.14 6.59419 49.8971 6.04017C50.6728 5.48616 51.6515 5.20915 52.8334 5.20915H52.9996C54.7171 5.20915 56.019 5.8001 56.9054 6.982C57.7919 8.16391 58.2351 9.88136 58.2351 12.1344V20.7216H54.3847V11.7743C54.3847 10.814 54.1077 10.0568 53.5536 9.50278C53.0181 8.94876 52.3071 8.67175 51.4207 8.67175C50.4788 8.67175 49.7125 8.9857 49.1215 9.61358C48.549 10.223 48.2628 11.0263 48.2628 12.0236V20.7216H44.4124Z" fill="black"/>
<path d="M4.08556 0.5C3.62502 0.5 3.39417 0.500039 3.39417 0.500039C4.43484 1.02034 4.68322 0.990676 5.49834 1.33302L18.3134 6.71535C18.627 6.84704 18.9724 6.96781 19.3243 7.09084C20.6909 7.56858 22.1552 8.08047 22.2292 9.399C22.2303 9.419 22.2309 9.43886 22.2309 9.45853V37.4753H28.6217C29.6931 37.4753 30.5617 36.6068 30.5617 35.5353V2.44006C30.5617 1.3686 29.6931 0.5 28.6217 0.5H4.08556Z" fill="black"/>
<path fill-rule="evenodd" clip-rule="evenodd" d="M3.41716 3.05371C2.10806 2.50388 0.0643158 2.17026 0.0643158 3.59014V37.8266C0.0643158 38.9233 1.28361 39.308 2.44439 39.6742C2.78712 39.7823 3.12475 39.8889 3.42439 40.0116L15.5917 44.9969C17.0943 45.6125 18.8979 45.8958 19.8523 44.5821C20.0347 44.331 20.1497 44.0826 20.1497 43.875V11.1792C20.1497 11.1595 20.1491 11.1397 20.148 11.1197C20.074 9.80116 18.6097 9.28927 17.2432 8.81152C16.8912 8.68849 16.5458 8.56773 16.2322 8.43604L3.41716 3.05371ZM15.8823 30.319C16.7445 30.319 17.4433 29.1542 17.4433 27.7173C17.4433 26.2804 16.7445 25.1156 15.8823 25.1156C15.0202 25.1156 14.3213 26.2804 14.3213 27.7173C14.3213 29.1542 15.0202 30.319 15.8823 30.319Z" fill="black"/>
</svg>
