<svg width="227" height="31" viewBox="0 0 227 31" fill="none" xmlns="http://www.w3.org/2000/svg">
<path d="M3.5337 0.965637C3.2363 0.965637 3.08722 0.965662 3.08722 0.965662C3.75926 1.30166 3.91966 1.2825 4.44604 1.50358L12.7217 4.97935C12.9242 5.06439 13.1472 5.14238 13.3745 5.22183C14.257 5.53034 15.2026 5.86091 15.2504 6.71238C15.2511 6.72529 15.2515 6.73811 15.2515 6.75082V24.8433H19.3785C20.0704 24.8433 20.6313 24.2824 20.6313 23.5905V2.21848C20.6313 1.52655 20.0704 0.965637 19.3785 0.965637H3.5337Z" fill="#48A7FF"/>
<path fill-rule="evenodd" clip-rule="evenodd" d="M3.10207 2.61482C2.25668 2.25976 0.93689 2.04431 0.93689 2.96124V25.0702C0.93689 25.7784 1.72428 26.0269 2.47388 26.2634C2.69521 26.3332 2.91324 26.402 3.10674 26.4813L10.9641 29.7006C11.9344 30.0982 13.0991 30.2811 13.7154 29.4328C13.8333 29.2706 13.9075 29.1102 13.9075 28.9761V7.86206C13.9075 7.84935 13.9071 7.83653 13.9064 7.82362C13.8586 6.97215 12.913 6.64158 12.0305 6.33307C11.8033 6.25362 11.5802 6.17563 11.3777 6.09059L3.10207 2.61482ZM11.1517 20.222C11.7085 20.222 12.1598 19.4698 12.1598 18.5419C12.1598 17.614 11.7085 16.8618 11.1517 16.8618C10.595 16.8618 10.1437 17.614 10.1437 18.5419C10.1437 19.4698 10.595 20.222 11.1517 20.222Z" fill="#093762"/>
<path d="M215.611 24.0485V6.53232H219.16V13.9517H219.063C219.063 11.4356 219.601 9.53233 220.676 8.242C221.751 6.95168 223.332 6.30652 225.418 6.30652H226.063V10.2097H224.837C223.332 10.2097 222.16 10.6183 221.321 11.4356C220.504 12.2313 220.095 13.3925 220.095 14.9194V24.0485H215.611Z" fill="#48A7FF"/>
<path d="M204.737 24.6613C203.231 24.6613 201.909 24.4032 200.769 23.8871C199.651 23.371 198.715 22.6828 197.962 21.8226C197.231 20.9409 196.672 19.9624 196.285 18.8871C195.919 17.8118 195.737 16.7151 195.737 15.5968V14.9839C195.737 13.8226 195.919 12.7043 196.285 11.629C196.672 10.5323 197.231 9.56453 197.962 8.72582C198.715 7.86561 199.64 7.18819 200.737 6.69357C201.833 6.17744 203.102 5.91937 204.543 5.91937C206.436 5.91937 208.016 6.33873 209.285 7.17744C210.575 7.99464 211.543 9.08066 212.188 10.4355C212.833 11.7688 213.156 13.2097 213.156 14.7581V16.371H197.64V13.629H210.35L208.962 14.9839C208.962 13.8656 208.801 12.9086 208.479 12.1129C208.156 11.3172 207.661 10.7043 206.995 10.2742C206.35 9.8441 205.532 9.62905 204.543 9.62905C203.554 9.62905 202.715 9.85486 202.027 10.3065C201.339 10.7581 200.812 11.414 200.446 12.2742C200.102 13.1129 199.93 14.1237 199.93 15.3065C199.93 16.4032 200.102 17.3817 200.446 18.242C200.79 19.0807 201.317 19.7473 202.027 20.242C202.737 20.7151 203.64 20.9516 204.737 20.9516C205.833 20.9516 206.726 20.7366 207.414 20.3065C208.102 19.8549 208.543 19.3065 208.737 18.6613H212.866C212.608 19.8656 212.113 20.9194 211.382 21.8226C210.651 22.7258 209.715 23.4247 208.575 23.9194C207.457 24.414 206.178 24.6613 204.737 24.6613Z" fill="#48A7FF"/>
<path d="M177.271 24.0484V6.53227H180.819V14.0484H180.497C180.497 12.2635 180.733 10.7796 181.206 9.59679C181.679 8.39249 182.378 7.48926 183.303 6.88711C184.249 6.28496 185.421 5.98389 186.819 5.98389H187.013C189.099 5.98389 190.679 6.66131 191.755 8.01614C192.83 9.34948 193.368 11.3495 193.368 14.0161V24.0484H188.884V13.629C188.884 12.5538 188.572 11.6828 187.948 11.0161C187.346 10.3495 186.507 10.0161 185.432 10.0161C184.335 10.0161 183.443 10.3602 182.755 11.0484C182.088 11.7151 181.755 12.6183 181.755 13.7581V24.0484H177.271Z" fill="#48A7FF"/>
<path d="M157.644 24.0484V6.53227H161.192V14.0484H160.87C160.87 12.2635 161.106 10.7796 161.58 9.59679C162.053 8.39249 162.752 7.48926 163.676 6.88711C164.623 6.28496 165.795 5.98389 167.192 5.98389H167.386C169.472 5.98389 171.053 6.66131 172.128 8.01614C173.203 9.34948 173.741 11.3495 173.741 14.0161V24.0484H169.257V13.629C169.257 12.5538 168.945 11.6828 168.321 11.0161C167.719 10.3495 166.881 10.0161 165.805 10.0161C164.709 10.0161 163.816 10.3602 163.128 11.0484C162.461 11.7151 162.128 12.6183 162.128 13.7581V24.0484H157.644Z" fill="#48A7FF"/>
<path d="M150.583 24.0484V18.8549H149.841V13.0807C149.841 12.0699 149.594 11.3172 149.099 10.8226C148.605 10.328 147.841 10.0807 146.809 10.0807C146.271 10.0807 145.626 10.0914 144.873 10.1129C144.121 10.1344 143.357 10.1667 142.583 10.2097C141.83 10.2312 141.153 10.2635 140.551 10.3065V6.50004C141.045 6.45703 141.605 6.41402 142.228 6.371C142.852 6.32799 143.486 6.30649 144.131 6.30649C144.798 6.28498 145.422 6.27423 146.002 6.27423C147.809 6.27423 149.303 6.51079 150.486 6.98391C151.691 7.45703 152.594 8.19896 153.196 9.20971C153.82 10.2205 154.131 11.543 154.131 13.1775V24.0484H150.583ZM144.938 24.5C143.669 24.5 142.551 24.2742 141.583 23.8226C140.637 23.371 139.895 22.7258 139.357 21.8871C138.841 21.0484 138.583 20.0377 138.583 18.8549C138.583 17.5646 138.895 16.5108 139.518 15.6936C140.164 14.8764 141.056 14.2635 142.196 13.8549C143.357 13.4463 144.712 13.242 146.26 13.242H150.325V15.9194H146.196C145.164 15.9194 144.368 16.1775 143.809 16.6936C143.271 17.1882 143.002 17.8334 143.002 18.6291C143.002 19.4248 143.271 20.0699 143.809 20.5646C144.368 21.0592 145.164 21.3065 146.196 21.3065C146.82 21.3065 147.389 21.199 147.906 20.9839C148.443 20.7473 148.884 20.3603 149.228 19.8226C149.594 19.2635 149.798 18.5108 149.841 17.5646L150.938 18.8226C150.83 20.0484 150.529 21.0807 150.035 21.9194C149.562 22.7581 148.895 23.4033 148.035 23.8549C147.196 24.285 146.164 24.5 144.938 24.5Z" fill="#48A7FF"/>
<path d="M131.658 24.0484V0.5H136.142V24.0484H131.658ZM129.464 3.85484V0.5H136.142V3.85484H129.464Z" fill="#48A7FF"/>
<path d="M110.167 30.5V6.53227H113.715V14.0807L113.167 14.0484C113.253 12.2635 113.618 10.7688 114.263 9.56453C114.93 8.36023 115.812 7.46776 116.909 6.88711C118.005 6.28496 119.231 5.98389 120.586 5.98389C121.833 5.98389 122.952 6.20969 123.941 6.66131C124.952 7.11292 125.812 7.74733 126.521 8.56453C127.253 9.38174 127.812 10.3387 128.199 11.4355C128.586 12.5108 128.78 13.6721 128.78 14.9194V15.5968C128.78 16.8656 128.586 18.0484 128.199 19.1452C127.833 20.2204 127.285 21.1774 126.554 22.0161C125.844 22.8333 124.984 23.4785 123.973 23.9516C122.962 24.4032 121.833 24.629 120.586 24.629C119.274 24.629 118.07 24.3602 116.973 23.8226C115.898 23.2635 115.027 22.414 114.36 21.2742C113.694 20.1129 113.317 18.6183 113.231 16.7903L114.65 18.9516V30.5H110.167ZM119.457 20.8549C120.425 20.8549 121.263 20.6183 121.973 20.1452C122.704 19.6721 123.274 19.0161 123.683 18.1774C124.091 17.3172 124.296 16.3495 124.296 15.2742C124.296 14.1559 124.091 13.1882 123.683 12.371C123.274 11.5538 122.704 10.9194 121.973 10.4678C121.263 9.99464 120.425 9.75808 119.457 9.75808C118.575 9.75808 117.758 9.95163 117.005 10.3387C116.274 10.7258 115.672 11.2957 115.199 12.0484C114.747 12.8011 114.521 13.7043 114.521 14.7581V16.0484C114.521 17.0592 114.758 17.9194 115.231 18.629C115.704 19.3387 116.317 19.8871 117.07 20.2742C117.823 20.6613 118.618 20.8549 119.457 20.8549Z" fill="#48A7FF"/>
<path d="M101.854 24.0484V0.5H106.338V24.0484H101.854ZM99.6605 3.85484V0.5H106.338V3.85484H99.6605Z" fill="#093762"/>
<path d="M90.7535 24.6613C89.2481 24.6613 87.9255 24.4032 86.7857 23.8871C85.6675 23.371 84.732 22.6828 83.9793 21.8226C83.2481 20.9409 82.689 19.9624 82.3019 18.8871C81.9363 17.8118 81.7535 16.7151 81.7535 15.5968V14.9839C81.7535 13.8226 81.9363 12.7043 82.3019 11.629C82.689 10.5323 83.2481 9.56453 83.9793 8.72582C84.732 7.86561 85.6567 7.18819 86.7535 6.69357C87.8502 6.17744 89.1191 5.91937 90.5599 5.91937C92.4524 5.91937 94.033 6.33873 95.3019 7.17744C96.5922 7.99464 97.5599 9.08066 98.2051 10.4355C98.8502 11.7688 99.1728 13.2097 99.1728 14.7581V16.371H83.6567V13.629H96.3664L94.9793 14.9839C94.9793 13.8656 94.818 12.9086 94.4954 12.1129C94.1728 11.3172 93.6782 10.7043 93.0115 10.2742C92.3664 9.8441 91.5492 9.62905 90.5599 9.62905C89.5707 9.62905 88.732 9.85486 88.0438 10.3065C87.3556 10.7581 86.8287 11.414 86.4632 12.2742C86.1191 13.1129 85.947 14.1237 85.947 15.3065C85.947 16.4032 86.1191 17.3817 86.4632 18.242C86.8072 19.0807 87.3341 19.7473 88.0438 20.242C88.7535 20.7151 89.6567 20.9516 90.7535 20.9516C91.8503 20.9516 92.7427 20.7366 93.4309 20.3065C94.1191 19.8549 94.5599 19.3065 94.7535 18.6613H98.8825C98.6244 19.8656 98.1298 20.9194 97.3986 21.8226C96.6675 22.7258 95.732 23.4247 94.5922 23.9194C93.4739 24.414 92.1943 24.6613 90.7535 24.6613Z" fill="#093762"/>
<path d="M78.0202 24.2742C76.4073 24.2742 75.074 24.0699 74.0202 23.6613C72.9879 23.2312 72.2137 22.5215 71.6976 21.5323C71.1815 20.5215 70.9234 19.1667 70.9234 17.4678L70.9557 1.5968H75.1492L75.117 17.7581C75.117 18.6183 75.3428 19.285 75.7944 19.7581C76.2675 20.2097 76.9342 20.4355 77.7944 20.4355H80.5363V24.2742H78.0202ZM68.1492 9.82261V6.53228H80.5363V9.82261H68.1492Z" fill="#093762"/>
<path d="M58.2232 24.6613C56.6748 24.6613 55.3092 24.414 54.1264 23.9194C52.9436 23.4247 51.9436 22.7581 51.1264 21.9194C50.3092 21.0592 49.6855 20.0914 49.2554 19.0161C48.8468 17.9409 48.6425 16.8226 48.6425 15.6613V14.9839C48.6425 13.7796 48.8576 12.6398 49.2877 11.5645C49.7393 10.4678 50.3737 9.50002 51.1909 8.66131C52.0296 7.80109 53.0404 7.13443 54.2232 6.66131C55.406 6.16668 56.7393 5.91937 58.2232 5.91937C59.707 5.91937 61.0404 6.16668 62.2232 6.66131C63.406 7.13443 64.406 7.80109 65.2232 8.66131C66.0619 9.50002 66.6963 10.4678 67.1264 11.5645C67.5565 12.6398 67.7715 13.7796 67.7715 14.9839V15.6613C67.7715 16.8226 67.5565 17.9409 67.1264 19.0161C66.7178 20.0914 66.1049 21.0592 65.2877 21.9194C64.4705 22.7581 63.4705 23.4247 62.2877 23.9194C61.1049 24.414 59.75 24.6613 58.2232 24.6613ZM58.2232 20.8226C59.3199 20.8226 60.2447 20.586 60.9974 20.1129C61.75 19.6183 62.3199 18.9624 62.707 18.1452C63.0941 17.3065 63.2877 16.3602 63.2877 15.3065C63.2877 14.2312 63.0834 13.285 62.6748 12.4678C62.2877 11.629 61.707 10.9731 60.9328 10.5C60.1802 10.0054 59.2769 9.75808 58.2232 9.75808C57.1694 9.75808 56.2554 10.0054 55.4812 10.5C54.7285 10.9731 54.1479 11.629 53.7393 12.4678C53.3307 13.285 53.1264 14.2312 53.1264 15.3065C53.1264 16.3602 53.3199 17.3065 53.707 18.1452C54.1156 18.9624 54.6963 19.6183 55.449 20.1129C56.2017 20.586 57.1264 20.8226 58.2232 20.8226Z" fill="#093762"/>
<path d="M30.1768 24.0484V0.5H34.6606V14.2419H33.8864C33.8864 12.4785 34.1122 10.9839 34.5639 9.75806C35.0155 8.53226 35.6821 7.59677 36.5639 6.95161C37.4671 6.30645 38.6069 5.98387 39.9832 5.98387H40.1768C42.1768 5.98387 43.6929 6.67204 44.7251 8.04839C45.7574 9.42473 46.2735 11.4247 46.2735 14.0484V24.0484H41.7897V13.629C41.7897 12.5108 41.4671 11.629 40.8219 10.9839C40.1983 10.3387 39.3703 10.0161 38.338 10.0161C37.2413 10.0161 36.3488 10.3817 35.6606 11.1129C34.994 11.8226 34.6606 12.7581 34.6606 13.9194V24.0484H30.1768Z" fill="#093762"/>
</svg>
